<?xml version="1.0" encoding="UTF-8" standalone="no"?>
<!--
  * Copyright (c) 2024 Matthew Nelson
  *
  * Licensed under the Apache License, Version 2.0 (the "License");
  * you may not use this file except in compliance with the License.
  * You may obtain a copy of the License at
  *
  *     https://www.apache.org/licenses/LICENSE-2.0
  *
  * Unless required by applicable law or agreed to in writing, software
  * distributed under the License is distributed on an "AS IS" BASIS,
  * WITHOUT WARRANTIES OR CONDITIONS OF ANY KIND, either express or implied.
  * See the License for the specific language governing permissions and
  * limitations under the License.
  *-->
<svg
   width="16"
   height="16"
   viewBox="0 0 16 16"
   version="1.1"
   id="svg4"
   xmlns="http://www.w3.org/2000/svg"
   xmlns:svg="http://www.w3.org/2000/svg">
  <defs
     id="defs4" />
  <g
     fill="context-fill"
     fill-opacity="context-fill-opacity"
     id="g4"
     style="fill:#fbfbfb;fill-opacity:1"
     transform="scale(1.0319668,1.0328304)">
    <path
       d="m 13.5383,14.5627 c -0.1712,-0.0053 -0.3194,-0.1334 -0.3505,-0.3028 -0.0419,-0.294 -0.1441,-0.5789 -0.3001,-0.8369 -0.2583,-0.1558 -0.5436,-0.2579 -0.838,-0.2998 -0.1694,-0.0313 -0.2974,-0.1793 -0.3026,-0.3501 -0.0053,-0.1708 0.1136,-0.3146 0.2813,-0.3402 0.2944,-0.0329 0.5762,-0.1254 0.8284,-0.272 0.1426,-0.2476 0.2313,-0.5243 0.2608,-0.8129 0.0237,-0.1679 0.1662,-0.2884 0.3372,-0.2851 0.1699,0.0042 0.3181,0.1295 0.3517,0.2973 0.0471,0.2931 0.1533,0.5763 0.312,0.8323 0.2565,0.1573 0.5396,0.263 0.8326,0.3109 0.1682,0.0345 0.2929,0.1836 0.2958,0.3536 0.0028,0.17 -0.1171,0.3116 -0.2843,0.3357 -0.2894,0.0285 -0.5669,0.1172 -0.8147,0.2604 -0.1462,0.2521 -0.2386,0.5335 -0.2717,0.8274 -0.025,0.167 -0.1675,0.2861 -0.3379,0.2822 z"
       id="path1"
       style="fill:#fbfbfb;fill-opacity:1" />
    <path
       d="M 6.49858,2.99992 C 6.35183,2.99533 6.22481,2.88556 6.19818,2.74031 6.16225,2.48835 6.07464,2.2441 5.94089,2.023 5.71952,1.88942 5.47495,1.80191 5.22267,1.76601 5.07741,1.73919 4.96775,1.61238 4.96322,1.46597 4.95868,1.31956 5.06059,1.1963 5.20434,1.17433 5.4567,1.14616 5.69827,1.06686 5.91447,0.941237 6.03664,0.728937 6.11272,0.491783 6.138,0.244403 6.1583,0.100525 6.28042,-0.00274156 6.42697,5.547e-5 6.57262,0.00364051 6.6997,0.111057 6.72846,0.2549 6.76886,0.506083 6.85985,0.748823 6.99586,0.968249 7.21574,1.10309 7.45842,1.19371 7.7095,1.23473 7.85367,1.2643 7.96064,1.39217 7.96308,1.53786 7.96552,1.68356 7.86273,1.80493 7.7194,1.8256 7.4713,1.85001 7.23348,1.92601 7.02105,2.04879 6.89575,2.26489 6.81656,2.50608 6.78821,2.75799 6.76681,2.90111 6.6446,3.0032 6.49858,2.99992 Z"
       id="path2"
       style="fill:#fbfbfb;fill-opacity:1" />
    <path
       d="M 1.82093,5.3609 C 1.66814,5.35617 1.53581,5.24215 1.50778,5.09109 1.48039,4.91095 1.41997,4.73584 1.32958,4.57466 1.16806,4.48445 0.992591,4.42414 0.812068,4.39678 0.660631,4.36884 0.546319,4.23675 0.541594,4.08424 0.53687,3.93173 0.643112,3.80334 0.792975,3.78046 0.974121,3.75901 1.14824,3.70453 1.30679,3.61971 1.38888,3.46426 1.44042,3.29349 1.45876,3.11616 1.47971,2.96557 1.60779,2.85755 1.76126,2.86104 1.9129,2.86472 2.0453,2.97629 2.07554,3.12588 2.10575,3.30617 2.16892,3.48091 2.26186,3.64126 2.42234,3.73318 2.59694,3.79578 2.77703,3.82595 2.92733,3.85675 3.03884,3.98995 3.04138,4.14172 3.04392,4.29348 2.93676,4.41991 2.78734,4.44143 2.6097,4.46057 2.43879,4.51284 2.28338,4.59555 2.19836,4.75375 2.14375,4.92749 2.12224,5.10825 2.10024,5.25736 1.97312,5.36396 1.82093,5.3609 Z"
       id="path3"
       style="fill:#fbfbfb;fill-opacity:1" />
    <path
       clip-rule="evenodd"
       d="m 15.3213,1.06694 c 0.2441,-0.244076 0.2441,-0.639804 0,-0.883882 -0.2441,-0.2440775 -0.6398,-0.2440774 -0.8839,0 L 8.47234,6.14812 H 7.96715 C 5.97115,5.05295 3.47692,6.57045 1.47636,7.7876 1.06091,8.04037 0.66675,8.28018 0.302763,8.48095 0.135203,8.58097 0.013502,8.74736 0.00130906,8.96143 -0.0108825,9.1755 0.0621056,9.37181 0.219339,9.52886 L 1.46303,10.7711 3.83387,9.74507 C 3.98779,9.67846 4.13718,9.88529 4.01988,10.0026 L 2.35775,11.6647 3.82104,13.1263 5.4823,11.465 c 0.1173,-0.1173 0.32413,0.0321 0.25752,0.186 L 4.715,14.0192 5.96962,15.2723 c 0.15724,0.157 0.35379,0.23 0.56815,0.2178 C 6.72872,15.434 6.89628,15.334 6.99646,15.1667 7.19658,14.8075 7.43223,14.4212 7.67967,14.0156 8.90208,12.0117 10.412,9.53659 9.34451,7.54027 V 7.04373 Z M 7.85415,7.61771 C 8.98107,8.74463 8.49528,10.3114 7.80137,11.3192 H 7.3 L 4.17,8.17 V 7.67 C 5.17858,6.98434 6.73556,6.49912 7.85415,7.61771 Z"
       fill-rule="evenodd"
       id="path4"
       style="fill:#fbfbfb;fill-opacity:1" />
  </g>
</svg>
