<?xml version="1.0" encoding="UTF-8" standalone="no"?>
<!--
  * Copyright (c) 2024 Matthew Nelson
  *
  * Licensed under the Apache License, Version 2.0 (the "License");
  * you may not use this file except in compliance with the License.
  * You may obtain a copy of the License at
  *
  *     https://www.apache.org/licenses/LICENSE-2.0
  *
  * Unless required by applicable law or agreed to in writing, software
  * distributed under the License is distributed on an "AS IS" BASIS,
  * WITHOUT WARRANTIES OR CONDITIONS OF ANY KIND, either express or implied.
  * See the License for the specific language governing permissions and
  * limitations under the License.
  *-->
<svg
   width="256"
   height="256"
   viewBox="0 0 24 24"
   fill="none"
   version="1.1"
   id="svg1"
   xmlns="http://www.w3.org/2000/svg"
   xmlns:svg="http://www.w3.org/2000/svg">
  <defs
     id="defs1" />
  <g
     transform="matrix(1.2,0,0,1.2,-2.4,-2.4)"
     style="fill:#ffffff;fill-opacity:1">
    <path
       fill-rule="evenodd"
       clip-rule="evenodd"
       d="M 2,4.5 C 2,3.11929 3.11929,2 4.5,2 h 15 C 20.8807,2 22,3.11929 22,4.5 v 15 C 22,20.8807 20.8807,22 19.5,22 H 4.5 C 3.11929,22 2,20.8807 2,19.5 Z M 4.5,4 C 4.22386,4 4,4.22386 4,4.5 v 15 C 4,19.7761 4.22386,20 4.5,20 h 15 C 19.7761,20 20,19.7761 20,19.5 V 4.5 C 20,4.22386 19.7761,4 19.5,4 Z"
       fill="#000000"
       id="path1"
       style="fill:#ffffff;fill-opacity:1" />
  </g>
</svg>
